<svg width="405" height="572" viewBox="0 0 405 572" fill="none" xmlns="http://www.w3.org/2000/svg">
<path d="M334.673 203.857C316.695 193.794 290.012 185.201 265.703 178.982C264.12 184.749 262.537 190.289 261.067 195.264C284.359 201.256 309.685 209.284 326.306 218.668C348.806 231.332 356.72 259.937 344.057 282.437C331.394 304.937 302.788 312.852 280.288 300.188C257.449 287.299 228.391 259.033 208.831 238.681C221.834 236.419 232.462 227.374 236.871 215.276C236.871 215.276 266.268 133.53 266.268 86.9471C266.268 51.6707 237.663 23.1782 202.499 23.1782C167.336 23.1782 138.731 51.7838 138.731 86.9471C138.731 107.525 144.497 135 150.829 159.309C156.708 157.839 162.248 156.482 167.336 155.352C161.117 132.173 155.69 106.055 155.69 86.9471C155.69 61.1682 176.721 40.138 202.499 40.138C228.278 40.138 249.308 61.1682 249.308 86.9471C249.308 112.726 239.019 152.412 230.766 179.321C222.286 169.033 208.831 164.284 196.055 166.545C196.055 166.545 110.69 182.374 70.4391 205.892C40.0245 223.643 29.7356 262.764 47.4868 293.178C65.2381 323.593 104.359 333.882 134.773 316.131C152.525 305.729 173.329 286.96 191.08 269.208C186.896 264.912 182.939 260.729 179.321 256.997C162.361 274.07 142.688 291.935 126.18 301.545C103.906 314.548 75.1878 306.972 62.1853 284.698C49.1828 262.424 56.7582 233.706 79.0321 220.703C101.645 207.475 140.766 196.62 168.128 190.063C163.492 202.613 166.205 216.52 174.572 226.47C174.572 226.47 231.331 292.161 271.921 315.113C302.562 332.412 341.457 321.558 358.756 290.917C376.055 260.276 365.2 221.382 334.56 204.083L334.673 203.857ZM202.499 182.826C213.354 182.826 222.173 191.646 222.173 202.5C222.173 213.354 213.354 222.173 202.499 222.173C191.645 222.173 182.826 213.354 182.826 202.5C182.826 191.646 191.645 182.826 202.499 182.826Z" fill="white"/>
<path d="M56.2216 540.729H46.4651V556H38.7084V511.702H56.2216C65.1297 511.702 70.8867 517.519 70.8867 526.185C70.8867 534.73 65.0691 540.729 56.2216 540.729ZM54.7066 518.61H46.4651V533.821H54.5854C59.9182 533.821 62.7663 530.972 62.7663 526.124C62.7663 521.277 59.8576 518.61 54.7066 518.61ZM83.9562 556H76.1995V511.702H93.1068C103.166 511.702 109.044 516.792 109.044 525.518C109.044 531.457 106.257 535.699 101.045 537.82L109.469 556H100.985L93.4704 539.456H83.9562V556ZM83.9562 518.61V532.609H93.1068C98.0153 532.609 100.924 530.003 100.924 525.518C100.924 521.095 98.0153 518.61 93.1068 518.61H83.9562ZM155.886 533.821C155.886 547.274 147.038 556.727 134.312 556.727C121.647 556.727 112.921 547.334 112.921 533.821C112.921 520.368 121.708 510.914 134.373 510.914C147.038 510.914 155.886 520.307 155.886 533.821ZM147.705 533.821C147.705 524.367 142.493 518.368 134.373 518.368C126.253 518.368 121.041 524.367 121.041 533.821C121.041 543.274 126.253 549.273 134.373 549.273C142.493 549.273 147.705 543.153 147.705 533.821ZM179.407 540.729H169.65V556H161.893V511.702H179.407C188.315 511.702 194.072 517.519 194.072 526.185C194.072 534.73 188.254 540.729 179.407 540.729ZM177.892 518.61H169.65V533.821H177.77C183.103 533.821 185.951 530.972 185.951 526.124C185.951 521.277 183.042 518.61 177.892 518.61ZM226.897 556H199.384V511.702H226.897V518.853H207.141V530.245H224.836V537.093H207.141V548.849H226.897V556ZM241.851 511.702V548.849H260.394V556H234.094V511.702H241.851ZM273.247 511.702V548.849H291.79V556H265.49V511.702H273.247ZM324.398 556H296.886V511.702H324.398V518.853H304.642V530.245H322.337V537.093H304.642V548.849H324.398V556ZM339.352 556H331.595V511.702H348.503C358.562 511.702 364.44 516.792 364.44 525.518C364.44 531.457 361.653 535.699 356.441 537.82L364.864 556H356.381L348.866 539.456H339.352V556ZM339.352 518.61V532.609H348.503C353.411 532.609 356.32 530.003 356.32 525.518C356.32 521.095 353.411 518.61 348.503 518.61H339.352Z" fill="white"/>
</svg>
